<?xml version="1.0" encoding="UTF-8" standalone="no"?>
<!-- Created with Inkscape (http://www.inkscape.org/) -->

<svg
   xmlns:dc="http://purl.org/dc/elements/1.1/"
   xmlns:cc="http://creativecommons.org/ns#"
   xmlns:rdf="http://www.w3.org/1999/02/22-rdf-syntax-ns#"
   xmlns:svg="http://www.w3.org/2000/svg"
   xmlns="http://www.w3.org/2000/svg"
   xmlns:sodipodi="http://sodipodi.sourceforge.net/DTD/sodipodi-0.dtd"
   xmlns:inkscape="http://www.inkscape.org/namespaces/inkscape"
   version="1.1"
   id="svg815"
   width="800"
   height="350"
   viewBox="0 0 800 350"
   sodipodi:docname="practicalInkScape.svg"
   inkscape:version="0.92.3 (2405546, 2018-03-11)">
  <metadata
     id="metadata821">
    <rdf:RDF>
      <cc:Work
         rdf:about="">
        <dc:format>image/svg+xml</dc:format>
        <dc:type
           rdf:resource="http://purl.org/dc/dcmitype/StillImage" />
        <dc:title />
      </cc:Work>
    </rdf:RDF>
  </metadata>
  <defs
     id="defs819" />
  <sodipodi:namedview
     pagecolor="#ffffff"
     bordercolor="#666666"
     borderopacity="1"
     objecttolerance="10"
     gridtolerance="10"
     guidetolerance="10"
     inkscape:pageopacity="0"
     inkscape:pageshadow="2"
     inkscape:window-width="2560"
     inkscape:window-height="1377"
     id="namedview817"
     showgrid="false"
     inkscape:zoom="2.5296745"
     inkscape:cx="395.85107"
     inkscape:cy="145.99374"
     inkscape:window-x="-8"
     inkscape:window-y="-8"
     inkscape:window-maximized="1"
     inkscape:current-layer="svg815"
     inkscape:measure-start="276.715,305.178"
     inkscape:measure-end="279.087,264.856" />
  <path
     style="fill:#b87333;fill-opacity:1"
     d="m 75,270 c 0,-27.33333 0.349206,-42 1,-42 0.637905,0 1.001107,8.41871 1.003058,23.25 0.0017,12.7875 0.297512,31.0125 0.6574,40.5 L 78.314801,309 H 211.6574 345 l 0.002,-14.25 c 9.2e-4,-7.8375 0.29864,-28.7625 0.66161,-46.5 0.53082,-25.94052 0.92178,-32.25 1.99832,-32.25 1.0984,0 1.33839,8.22489 1.33839,45.86916 v 45.86916 l 3.75,0.61983 c 2.0625,0.34091 62.35791,0.62479 133.98981,0.63084 l 130.23981,0.011 0.26019,-45.16684 c 0.20195,-35.05761 0.53996,-45.26006 1.51019,-45.58333 0.98781,-0.32914 1.25,9.14471 1.25,45.16684 L 620,309 h 43.5 43.5 v -41.5 c 0,-36.22222 0.19076,-41.5 1.5,-41.5 1.31008,0 1.5,5.44444 1.5,43 v 43 H 392.5 75 Z M 74.622509,138.83399 c -0.372996,-6.14131 -0.368391,-29.99131 0.01024,-53 L 75.321154,44 h 82.922756 c 65.89373,0 82.8372,0.2567 82.50615,1.25 -0.32779,0.983492 -17.72189,1.304555 -81.58334,1.50588 L 78,47.01176 77.986345,96.25588 c -0.0075,27.08427 -0.284994,50.25662 -0.616631,51.49412 -1.245805,4.64871 -2.089685,1.90991 -2.747205,-8.91601 z M 708,121.66193 c 0,-14.48594 -0.29698,-37.210938 -0.65995,-50.5 L 706.68011,47 H 663.34005 620 v 46.5 c 0,40.66667 -0.18817,46.5 -1.5,46.5 -1.31176,0 -1.5,-5.81612 -1.5,-46.345102 V 47.309796 l -31.72436,-0.712589 c -17.4484,-0.391925 -31.9234,-0.911629 -32.16666,-1.154898 -0.24327,-0.24327 -0.20527,-0.679351 0.0845,-0.96907 0.53332,-0.533323 155.91216,-0.700987 156.44433,-0.168814 0.27211,0.272107 0.48262,45.259945 0.39984,85.445575 -0.0236,11.47494 -0.40884,18.25 -1.0376,18.25 -0.64135,0 -1,-9.44602 -1,-26.33807 z M 345.66313,107.25 c -0.36279,-16.9125 -0.66041,-37.3875 -0.66137,-45.5 L 345,47 H 331.5 C 320.66552,47 318,46.726565 318,45.615141 c 0,-1.164334 12.46048,-1.453608 78.25,-1.816597 43.0375,-0.237456 78.41809,-0.308677 78.62354,-0.158269 0.20544,0.150408 0.10707,0.967876 -0.21862,1.816597 C 474.12994,46.824944 466.96908,47 411.53138,47 H 349 v 45.5 c 0,37.34001 -0.24007,45.5 -1.33863,45.5 -1.07485,0 -1.46861,-6.05934 -1.99824,-30.75 z"
     id="path3729"
     inkscape:connector-curvature="0" />
  <path
     style="fill:none;stroke:#b87333;stroke-width:3.02362204;stroke-linecap:butt;stroke-linejoin:miter;stroke-miterlimit:4;stroke-dasharray:none;stroke-opacity:1"
     d="m 75.799181,139.90716 0.55905,13.97624"
     id="path825"
     inkscape:connector-curvature="0" />
  <path
     style="fill:none;stroke:#b87333;stroke-width:3.02362204;stroke-linecap:butt;stroke-linejoin:miter;stroke-miterlimit:4;stroke-dasharray:none;stroke-opacity:1"
     d="m 279.11075,84.701561 0.39531,154.170029 h -45.4604"
     id="path827"
     inkscape:connector-curvature="0" />
  <circle
     style="fill:#f4eed7;fill-opacity:1;stroke:#b87333;stroke-width:1.01089454;stroke-opacity:1"
     id="path4536"
     cx="76.44603"
     cy="149.42735"
     r="4.4945526" />
  <circle
     r="4.4945526"
     cy="232.04668"
     cx="76.05072"
     id="circle4538"
     style="fill:#f4eed7;fill-opacity:1;stroke:#b87333;stroke-width:1.01089454;stroke-opacity:1" />
  <circle
     style="fill:#f4eed7;fill-opacity:1;stroke:#b87333;stroke-width:1.01089454;stroke-opacity:1"
     id="circle4540"
     cx="234.96445"
     cy="239.16222"
     r="4.4945526" />
  <circle
     r="4.4945526"
     cy="88.945259"
     cx="279.23889"
     id="circle4542"
     style="fill:#f4eed7;fill-opacity:1;stroke:#b87333;stroke-width:1.01089454;stroke-opacity:1" />
  <circle
     style="fill:#f4eed7;fill-opacity:1;stroke:#b87333;stroke-width:1.01089454;stroke-opacity:1"
     id="circle4544"
     cx="322.32745"
     cy="45.461403"
     r="4.4945526" />
  <circle
     r="4.4945526"
     cy="45.066093"
     cx="236.94096"
     id="circle4546"
     style="fill:#f4eed7;fill-opacity:1;stroke:#b87333;stroke-width:1.01089454;stroke-opacity:1" />
  <circle
     style="fill:#f4eed7;fill-opacity:1;stroke:#b87333;stroke-width:1.01089454;stroke-opacity:1"
     id="circle4548"
     cx="347.23184"
     cy="133.61504"
     r="4.4945526" />
  <circle
     r="4.4945526"
     cy="220.18744"
     cx="347.62714"
     id="circle4550"
     style="fill:#f4eed7;fill-opacity:1;stroke:#b87333;stroke-width:1.01089454;stroke-opacity:1" />
  <circle
     style="fill:#f4eed7;fill-opacity:1;stroke:#b87333;stroke-width:1.01089454;stroke-opacity:1"
     id="circle4552"
     cx="473.73032"
     cy="45.066097"
     r="4.4945526" />
  <circle
     r="4.4945526"
     cy="45.066097"
     cx="556.74493"
     id="circle4554"
     style="fill:#f4eed7;fill-opacity:1;stroke:#b87333;stroke-width:1.01089454;stroke-opacity:1" />
  <circle
     style="fill:#f4eed7;fill-opacity:1;stroke:#b87333;stroke-width:1.01089454;stroke-opacity:1"
     id="circle4556"
     cx="618.0177"
     cy="135.19627"
     r="4.4945526" />
  <circle
     r="4.4945526"
     cy="222.95461"
     cx="618.41296"
     id="circle4558"
     style="fill:#f4eed7;fill-opacity:1;stroke:#b87333;stroke-width:1.01089454;stroke-opacity:1" />
  <circle
     style="fill:#f4eed7;fill-opacity:1;stroke:#b87333;stroke-width:1.01089454;stroke-opacity:1"
     id="circle4560"
     cx="709.33374"
     cy="143.10243"
     r="4.4945526" />
  <circle
     r="4.4945526"
     cy="230.86075"
     cx="708.14783"
     id="circle4562"
     style="fill:#f4eed7;fill-opacity:1;stroke:#b87333;stroke-width:1.01089454;stroke-opacity:1" />
</svg>
